<svg width="129" height="60" viewBox="0 0 129 60" fill="none" xmlns="http://www.w3.org/2000/svg">
<path d="M3.216 43.216C3.184 42.064 3.152 40.72 3.12 39.184C3.088 37.648 3.056 35.984 3.024 34.192C3.024 32.4 3.008 30.512 2.976 28.528C2.976 26.544 2.976 24.512 2.976 22.432C2.976 20.16 2.992 18.208 3.024 16.576C3.056 14.944 3.136 13.6 3.264 12.544C3.424 11.488 3.664 10.72 3.984 10.24C4.304 9.728 4.752 9.472 5.328 9.472C5.872 9.472 6.352 9.648 6.768 10C7.184 10.352 7.424 11.168 7.488 12.448C7.616 14.752 7.696 17.152 7.728 19.648C7.76 22.112 7.776 24.544 7.776 26.944C7.776 28.384 7.776 29.776 7.776 31.12C7.776 32.432 7.76 33.744 7.728 35.056C7.696 36.336 7.664 37.648 7.632 38.992C7.6 40.336 7.552 41.728 7.488 43.168C7.456 43.936 7.376 44.528 7.248 44.944C7.152 45.36 7.008 45.68 6.816 45.904C6.624 46.128 6.4 46.256 6.144 46.288C5.92 46.352 5.648 46.384 5.328 46.384C4.752 46.384 4.272 46.192 3.888 45.808C3.504 45.392 3.28 44.528 3.216 43.216ZM19.2784 54.784C18.8624 55.52 18.4624 56.064 18.0784 56.416C17.7264 56.768 17.3104 56.944 16.8304 56.944C16.3824 56.944 15.9344 56.8 15.4864 56.512C15.0384 56.224 14.8144 55.824 14.8144 55.312C14.8144 54.832 14.9744 54.144 15.2944 53.248C15.6464 52.352 16.0624 51.376 16.5424 50.32C17.0544 49.264 17.5824 48.176 18.1264 47.056C18.6704 45.936 19.1664 44.912 19.6144 43.984L19.9504 43.264C18.9904 41.376 17.9984 39.36 16.9744 37.216C15.9824 35.072 15.0704 33.04 14.2384 31.12C13.4064 29.2 12.7184 27.536 12.1744 26.128C11.6624 24.688 11.4064 23.744 11.4064 23.296C11.4064 22.88 11.5664 22.528 11.8864 22.24C12.2384 21.92 12.6704 21.76 13.1824 21.76C13.6304 21.76 14.0624 21.856 14.4784 22.048C14.8944 22.208 15.2784 22.592 15.6304 23.2C16.1424 24.16 16.6704 25.264 17.2144 26.512C17.7904 27.728 18.3504 29.008 18.8944 30.352C19.4704 31.696 20.0464 33.056 20.6224 34.432C21.2304 35.808 21.8384 37.136 22.4464 38.416C23.1504 37.104 23.9024 35.728 24.7024 34.288C25.5024 32.848 26.2704 31.456 27.0064 30.112C27.7744 28.768 28.4784 27.536 29.1184 26.416C29.7584 25.264 30.3024 24.304 30.7504 23.536C31.1984 22.8 31.6464 22.272 32.0944 21.952C32.5424 21.632 33.0064 21.472 33.4864 21.472C33.8064 21.472 34.1264 21.616 34.4464 21.904C34.7664 22.16 34.9264 22.512 34.9264 22.96C34.9264 23.632 34.6224 24.72 34.0144 26.224C33.4384 27.696 32.6864 29.408 31.7584 31.36C30.8304 33.312 29.7744 35.408 28.5904 37.648C27.4384 39.856 26.2864 42.032 25.1344 44.176C23.9824 46.288 22.8784 48.272 21.8224 50.128C20.7984 51.984 19.9504 53.536 19.2784 54.784ZM38.7461 43.072C38.6181 41.952 38.5381 40.592 38.5061 38.992C38.4741 37.392 38.4581 35.456 38.4581 33.184C38.4581 30.944 38.4581 29.136 38.4581 27.76C38.4901 26.384 38.5861 25.168 38.7461 24.112C38.9061 22.8 39.1461 21.952 39.4661 21.568C39.8181 21.184 40.2661 20.992 40.8101 20.992C41.1941 20.992 41.5301 21.024 41.8181 21.088C42.1381 21.152 42.4101 21.296 42.6341 21.52C42.8901 21.712 43.0821 22 43.2101 22.384C43.3381 22.768 43.4021 23.296 43.4021 23.968C43.4021 24.096 43.4181 24.224 43.4501 24.352C43.4501 24.48 43.4501 24.624 43.4501 24.784C43.4821 24.912 43.4981 25.072 43.4981 25.264C44.3621 24.176 45.3381 23.248 46.4261 22.48C47.5461 21.712 48.8101 21.328 50.2181 21.328C52.1061 21.328 53.0501 22.112 53.0501 23.68C53.0501 24.256 52.9221 24.736 52.6661 25.12C52.4421 25.504 52.1061 25.824 51.6581 26.08C51.2421 26.304 50.7461 26.48 50.1701 26.608C49.6261 26.736 49.0181 26.864 48.3461 26.992C47.3221 27.184 46.3621 27.552 45.4661 28.096C44.5701 28.608 43.9621 29.264 43.6421 30.064C43.6421 30.672 43.6421 31.12 43.6421 31.408C43.6741 31.696 43.6901 31.936 43.6901 32.128C43.7221 32.32 43.7381 32.528 43.7381 32.752C43.7381 32.976 43.7381 33.328 43.7381 33.808C43.7381 35.44 43.7061 36.976 43.6421 38.416C43.5781 39.824 43.5141 41.36 43.4501 43.024C43.4181 43.792 43.3221 44.384 43.1621 44.8C43.0341 45.216 42.8581 45.536 42.6341 45.76C42.4421 45.984 42.2181 46.112 41.9621 46.144C41.7061 46.208 41.4501 46.24 41.1941 46.24C40.2981 46.24 39.6901 46.048 39.3701 45.664C39.0821 45.248 38.8741 44.384 38.7461 43.072ZM56.9359 43.024C56.8719 41.84 56.8079 40.496 56.7439 38.992C56.7119 37.456 56.6959 35.776 56.6959 33.952C56.6959 31.68 56.7119 29.744 56.7439 28.144C56.7759 26.512 56.8559 25.184 56.9839 24.16C57.1439 23.104 57.3839 22.336 57.7039 21.856C58.0239 21.344 58.4719 21.088 59.0479 21.088C59.5919 21.088 60.0719 21.28 60.4879 21.664C60.9039 22.048 61.1439 22.88 61.2079 24.16C61.3999 27.52 61.4959 30.768 61.4959 33.904C61.4959 35.504 61.4639 37.008 61.3999 38.416C61.3359 39.792 61.2719 41.312 61.2079 42.976C61.1759 43.744 61.0959 44.336 60.9679 44.752C60.8719 45.168 60.7279 45.488 60.5359 45.712C60.3439 45.936 60.1199 46.064 59.8639 46.096C59.6399 46.16 59.3679 46.192 59.0479 46.192C58.4719 46.192 57.9919 46 57.6079 45.616C57.2239 45.2 56.9999 44.336 56.9359 43.024ZM59.0959 12.4C59.8319 12.4 60.5039 12.688 61.1119 13.264C61.7519 13.84 62.0719 14.528 62.0719 15.328C62.0719 16.096 61.7519 16.768 61.1119 17.344C60.4719 17.888 59.7519 18.16 58.9519 18.16C58.2799 18.16 57.6399 17.888 57.0319 17.344C56.4559 16.768 56.1679 16.064 56.1679 15.232C56.1679 14.464 56.4559 13.808 57.0319 13.264C57.6399 12.688 58.3279 12.4 59.0959 12.4ZM78.372 21.52C79.3 21.52 80.228 21.6 81.156 21.76C82.116 21.92 82.98 22.144 83.748 22.432C84.516 22.72 85.14 23.072 85.62 23.488C86.1 23.904 86.34 24.384 86.34 24.928C86.34 26.336 85.54 27.04 83.94 27.04C83.556 27.04 83.188 26.992 82.836 26.896C82.516 26.768 82.132 26.656 81.684 26.56C81.236 26.432 80.676 26.32 80.004 26.224C79.332 26.096 78.5 26.032 77.508 26.032C75.396 26.032 73.764 26.752 72.612 28.192C71.46 29.632 70.884 31.504 70.884 33.808C70.884 36.336 71.46 38.368 72.612 39.904C73.796 41.44 75.46 42.208 77.604 42.208C78.948 42.208 80.036 42.096 80.868 41.872C81.7 41.648 82.372 41.392 82.884 41.104C83.428 40.816 83.86 40.56 84.18 40.336C84.532 40.112 84.916 40 85.332 40C85.908 40 86.356 40.128 86.676 40.384C87.028 40.608 87.204 41.088 87.204 41.824C87.204 42.592 86.9 43.264 86.292 43.84C85.716 44.416 84.98 44.896 84.084 45.28C83.188 45.664 82.212 45.952 81.156 46.144C80.132 46.336 79.188 46.432 78.324 46.432C74.452 46.432 71.412 45.36 69.204 43.216C66.996 41.072 65.892 38.032 65.892 34.096C65.892 32.4 66.148 30.8 66.66 29.296C67.204 27.76 68.004 26.416 69.06 25.264C70.116 24.112 71.412 23.2 72.948 22.528C74.516 21.856 76.324 21.52 78.372 21.52Z" fill="#01579B"/>
<g clip-path="url(#clip0)">
<path d="M124.557 27.4487C124.115 27.1735 123.535 27.3081 123.26 27.7494C122.985 28.1906 123.12 28.771 123.561 29.046C124.587 29.6861 125.2 30.7904 125.2 32.0001C125.2 33.2098 124.587 34.3141 123.561 34.9542L108.123 44.5798C107.034 45.2589 105.714 45.2923 104.592 44.6697C103.47 44.047 102.8 42.909 102.8 41.6257V22.3743C102.8 21.091 103.47 19.953 104.592 19.3303C105.714 18.7077 107.034 18.7411 108.123 19.4202L117.11 25.0236C117.551 25.2985 118.132 25.164 118.407 24.7229C118.682 24.2819 118.547 23.7013 118.106 23.4264L109.119 17.823C107.442 16.777 105.408 16.725 103.679 17.6845C101.95 18.6439 100.918 20.3971 100.918 22.3743V41.6256C100.918 43.6028 101.95 45.356 103.679 46.3153C104.502 46.7723 105.395 46.9999 106.285 46.9999C107.264 46.9999 108.241 46.7247 109.119 46.1768L124.557 36.5512C126.138 35.565 127.082 33.8637 127.082 31.9999C127.082 30.1361 126.138 28.4348 124.557 27.4487Z" fill="#01579B"/>
</g>
<defs>
<clipPath id="clip0">
<rect width="30" height="30" fill="white" transform="translate(99 17)"/>
</clipPath>
</defs>
</svg>
